<svg xmlns="http://www.w3.org/2000/svg" width="187" height="27" fill="none"><path fill="#000" d="M9.269 6.713c1.54 0 2.913.336 4.118 1.007a7.237 7.237 0 0 1 2.873 2.844c.692 1.225 1.037 2.637 1.037 4.236 0 1.6-.345 3.022-1.037 4.266a7.237 7.237 0 0 1-2.873 2.844c-1.205.672-2.578 1.008-4.118 1.008-1.086 0-2.084-.188-2.992-.563a5.751 5.751 0 0 1-2.252-1.689v2.044H.5V.73h3.703v8.087a6.25 6.25 0 0 1 2.222-1.57c.869-.355 1.817-.533 2.844-.533Zm-.415 13.035c1.363 0 2.479-.454 3.348-1.363.889-.909 1.333-2.103 1.333-3.585 0-1.48-.444-2.676-1.333-3.584-.87-.909-1.985-1.363-3.348-1.363-.889 0-1.688.207-2.4.622a4.287 4.287 0 0 0-1.688 1.718c-.415.75-.622 1.62-.622 2.607 0 .988.207 1.857.622 2.607.415.75.978 1.334 1.689 1.748.71.395 1.51.593 2.4.593ZM26.438 22.918c-1.6 0-3.041-.346-4.325-1.037a7.695 7.695 0 0 1-3.022-2.874c-.71-1.244-1.066-2.646-1.066-4.207 0-1.56.355-2.952 1.066-4.177a7.696 7.696 0 0 1 3.022-2.873c1.284-.692 2.725-1.037 4.325-1.037 1.62 0 3.071.345 4.355 1.037 1.284.69 2.281 1.649 2.992 2.873.73 1.225 1.096 2.617 1.096 4.177 0 1.56-.365 2.963-1.096 4.207-.711 1.225-1.708 2.182-2.992 2.874-1.284.691-2.735 1.037-4.355 1.037Zm0-3.17c1.363 0 2.489-.454 3.377-1.363.889-.909 1.333-2.103 1.333-3.585 0-1.48-.444-2.676-1.333-3.584-.889-.909-2.014-1.363-3.377-1.363s-2.488.454-3.377 1.363c-.87.908-1.304 2.103-1.304 3.584 0 1.482.435 2.677 1.304 3.585.889.909 2.014 1.363 3.377 1.363ZM82.032 6.713c1.994 0 3.574.582 4.74 1.747 1.165 1.146 1.747 2.874 1.747 5.185v9.065h-3.703v-8.591c0-1.383-.306-2.42-.918-3.11-.612-.712-1.491-1.067-2.637-1.067-1.244 0-2.241.414-2.992 1.244-.75.81-1.125 1.975-1.125 3.496v8.028H73.44v-8.591c0-1.383-.306-2.42-.918-3.11-.612-.712-1.491-1.067-2.637-1.067-1.264 0-2.27.405-3.021 1.214-.731.81-1.096 1.985-1.096 3.526v8.028h-3.703V6.89h3.525v2.015a5.757 5.757 0 0 1 2.222-1.63c.888-.375 1.876-.562 2.962-.562 1.185 0 2.232.227 3.14.68a5.009 5.009 0 0 1 2.193 1.956c.651-.83 1.49-1.471 2.518-1.925 1.027-.474 2.162-.711 3.407-.711ZM96.659 22.917c-1.284 0-2.538-.168-3.763-.503-1.224-.336-2.202-.76-2.933-1.274l1.422-2.814c.711.473 1.56.859 2.548 1.155 1.007.276 1.995.415 2.962.415 2.213 0 3.319-.583 3.319-1.748 0-.553-.287-.938-.86-1.156-.553-.217-1.451-.424-2.695-.622-1.304-.197-2.37-.424-3.2-.681a5.067 5.067 0 0 1-2.133-1.333c-.592-.652-.889-1.55-.889-2.696 0-1.501.622-2.696 1.867-3.585 1.264-.908 2.962-1.362 5.095-1.362 1.086 0 2.173.128 3.259.385 1.086.237 1.975.563 2.666.977l-1.422 2.815c-1.343-.79-2.854-1.185-4.532-1.185-1.087 0-1.916.168-2.489.503-.553.316-.83.74-.83 1.274 0 .593.297 1.017.89 1.274.611.237 1.55.464 2.814.681 1.264.198 2.301.425 3.11.682.81.257 1.501.691 2.074 1.303.593.613.889 1.482.889 2.607 0 1.482-.642 2.666-1.926 3.555-1.284.889-3.031 1.333-5.243 1.333ZM115.045 21.85c-.434.356-.968.623-1.6.8a6.981 6.981 0 0 1-1.955.267c-1.738 0-3.081-.454-4.029-1.362-.948-.909-1.422-2.232-1.422-3.97V9.97h-2.607V7.01h2.607V3.395h3.703v3.614h4.237V9.97h-4.237v7.525c0 .77.188 1.363.563 1.777.375.396.919.593 1.63.593.829 0 1.52-.217 2.073-.652l1.037 2.637ZM120.136 9.201c1.066-1.659 2.942-2.488 5.628-2.488v3.525a4.693 4.693 0 0 0-.859-.089c-1.442 0-2.567.425-3.377 1.274-.81.83-1.215 2.034-1.215 3.614v7.673h-3.703V6.89h3.526v2.311ZM142.152 14.889c0 .257-.02.622-.06 1.096h-12.413c.218 1.165.781 2.094 1.689 2.785.928.671 2.074 1.007 3.437 1.007 1.738 0 3.169-.573 4.295-1.718l1.985 2.281c-.711.85-1.61 1.491-2.696 1.926-1.086.434-2.311.651-3.673.651-1.738 0-3.269-.345-4.592-1.037-1.323-.69-2.35-1.649-3.081-2.873-.711-1.244-1.067-2.647-1.067-4.207 0-1.54.346-2.923 1.037-4.147a7.536 7.536 0 0 1 2.933-2.904c1.244-.69 2.647-1.036 4.207-1.036 1.54 0 2.913.345 4.118 1.036a7 7 0 0 1 2.844 2.874c.691 1.225 1.037 2.647 1.037 4.266Zm-7.999-5.214c-1.185 0-2.192.355-3.022 1.066-.81.692-1.303 1.62-1.481 2.785h8.976c-.158-1.145-.642-2.073-1.451-2.784-.81-.712-1.817-1.067-3.022-1.067ZM149.837 6.713c2.33 0 4.108.562 5.332 1.688 1.245 1.106 1.867 2.785 1.867 5.036v9.273h-3.496v-1.926c-.454.692-1.106 1.225-1.955 1.6-.83.356-1.837.533-3.022.533-1.185 0-2.222-.197-3.111-.592-.888-.415-1.58-.978-2.073-1.689a4.421 4.421 0 0 1-.711-2.459c0-1.422.523-2.557 1.57-3.406 1.066-.87 2.735-1.304 5.006-1.304h4.089v-.237c0-1.106-.336-1.955-1.008-2.548-.651-.592-1.629-.888-2.932-.888-.889 0-1.768.138-2.637.414-.849.277-1.57.662-2.163 1.156l-1.451-2.696c.829-.632 1.827-1.116 2.992-1.452a13.308 13.308 0 0 1 3.703-.503Zm-.504 13.508c.929 0 1.748-.207 2.459-.622a3.521 3.521 0 0 0 1.541-1.836v-1.837h-3.822c-2.133 0-3.199.701-3.199 2.103 0 .672.266 1.205.799 1.6.534.395 1.274.592 2.222.592ZM180.274 6.713c1.995 0 3.575.582 4.74 1.747 1.166 1.146 1.748 2.874 1.748 5.185v9.065h-3.703v-8.591c0-1.383-.306-2.42-.918-3.11-.613-.712-1.491-1.067-2.637-1.067-1.244 0-2.242.414-2.992 1.244-.751.81-1.126 1.975-1.126 3.496v8.028h-3.703v-8.591c0-1.383-.306-2.42-.918-3.11-.613-.712-1.491-1.067-2.637-1.067-1.264 0-2.271.405-3.022 1.214-.73.81-1.096 1.985-1.096 3.526v8.028h-3.703V6.89h3.525v2.015a5.767 5.767 0 0 1 2.222-1.63c.889-.375 1.877-.562 2.963-.562 1.185 0 2.232.227 3.14.68a5.008 5.008 0 0 1 2.192 1.956c.652-.83 1.491-1.471 2.518-1.925 1.027-.474 2.163-.711 3.407-.711Z"/><path fill="#fff" d="M59.526 14.5c0 6.33-5.133 11.46-11.464 11.46-6.332 0-11.464-5.13-11.464-11.46 0-6.328 5.132-11.458 11.464-11.458 6.331 0 11.464 5.13 11.464 11.459Z"/><path fill="#9FD700" d="M42.33 4.554c3.92-2.414 9.2-2.262 13.272 1.206 3.319 2.713 4.826 7.092 3.62 11.76l-5.128-2.715c-4.013-2.261-7.24-3.92-11.766-6.482 0-1.357.032-2.382.002-3.77Z"/><path fill="#FF7324" d="M43.837 21.228c-1.117.693-2.263 1.387-3.38 2.08-3.318-3.045-4.554-6.905-3.71-11.217.785-3.89 3.62-6.935 7.09-8.292v3.92c.09 4.463-.06 9.046 0 13.509Z"/><path fill="#662BFF" d="M53.48 14.5c1.54.814 4.194 2.201 5.733 3.015-.906 3.77-4.097 6.843-7.09 7.84-3.62 1.207-8.145 1.207-12.37-2.713 1.117-.694 2.203-1.267 3.32-1.96 3.952-2.202 6.456-3.98 10.407-6.182Z"/></svg>