<svg xmlns="http://www.w3.org/2000/svg" width="29" height="31" fill="none"><path fill="#222" fill-rule="evenodd" d="M1.8 15.467c.454-.453 1.263-.378 1.809.167l11.854 11.854c.545.546.62 1.356.167 1.809-.454.453-1.264.379-1.809-.167L1.967 17.276c-.545-.545-.62-1.355-.167-1.809Z" clip-rule="evenodd"/><path fill="#222" fill-rule="evenodd" d="M13.989 29.297c-.454-.454-.379-1.264.167-1.81L26.01 15.635c.545-.545 1.355-.62 1.808-.167.454.454.38 1.264-.166 1.81L15.798 29.13c-.546.546-1.355.62-1.809.167Z" clip-rule="evenodd"/><path fill="#222" fill-rule="evenodd" d="M14.697.921c.642 0 1.162.624 1.162 1.395V27.26c0 .77-.52 1.549-1.162 1.549-.641 0-1.162-.78-1.162-1.55V2.317c0-.77.52-1.395 1.162-1.395Z" clip-rule="evenodd"/></svg>